<?xml version="1.0" standalone="no"?><!DOCTYPE svg PUBLIC "-//W3C//DTD SVG 1.1//EN" "http://www.w3.org/Graphics/SVG/1.1/DTD/svg11.dtd"><svg t="1608131570639" class="icon" viewBox="0 0 1024 1024" version="1.1" xmlns="http://www.w3.org/2000/svg" p-id="4935" xmlns:xlink="http://www.w3.org/1999/xlink" width="128" height="128"><defs><style type="text/css"></style></defs><path d="M102.4 294.4a38.4 38.4 0 0 1 0-76.8h819.2a38.4 38.4 0 1 1 0 76.8H102.4z" fill="#427AFF" p-id="4936"></path><path d="M335.36 241.9712a38.4 38.4 0 1 1-76.8 0V120.6784C258.56 64.7168 310.4768 12.8 366.4384 12.8H655.36c55.9616 0 107.8784 51.9168 107.8784 107.8784v121.2928a38.4 38.4 0 0 1-76.8 0V120.6784c0-13.5168-17.5616-31.0784-31.0784-31.0784H366.4384c-13.5168 0-31.0784 17.5616-31.0784 31.0784v121.2928zM166.4 409.6a38.4 38.4 0 0 1 76.8 0v456.0384c0 13.568 17.5616 31.0784 31.0784 31.0784H768c13.5168 0 31.0784-17.5104 31.0784-31.0784V409.6a38.4 38.4 0 1 1 76.8 0v456.0384c0 55.9616-51.9168 107.8784-107.8784 107.8784H274.2784c-55.9616 0-107.8784-51.9168-107.8784-107.8784V409.6z" fill="#427AFF" p-id="4937"></path><path d="M371.2 409.6a38.4 38.4 0 0 1 76.8 0v332.8a38.4 38.4 0 1 1-76.8 0V409.6zM576 409.6a38.4 38.4 0 0 1 76.8 0v332.8a38.4 38.4 0 1 1-76.8 0V409.6z" fill="#427AFF" p-id="4938"></path></svg>