<?xml version="1.0" standalone="no"?><!DOCTYPE svg PUBLIC "-//W3C//DTD SVG 1.1//EN" "http://www.w3.org/Graphics/SVG/1.1/DTD/svg11.dtd"><svg t="1608131830488" class="icon" viewBox="0 0 1024 1024" version="1.1" xmlns="http://www.w3.org/2000/svg" p-id="5911" xmlns:xlink="http://www.w3.org/1999/xlink" width="128" height="128"><defs><style type="text/css"></style></defs><path d="M752.64 929.28H271.36c-97.28 0-174.08-79.36-174.08-174.08V271.36c0-97.28 79.36-174.08 174.08-174.08H512c17.92 0 30.72 12.8 30.72 30.72s-12.8 30.72-30.72 30.72h-240.64c-61.44 0-112.64 51.2-112.64 112.64v481.28c0 61.44 51.2 112.64 112.64 112.64h481.28c61.44 0 112.64-51.2 112.64-112.64V512c0-17.92 12.8-30.72 30.72-30.72s30.72 12.8 30.72 30.72v240.64c2.56 97.28-76.8 176.64-174.08 176.64z" fill="#304FFE" p-id="5912"></path><path d="M366.08 688.64c-7.68 0-15.36-2.56-23.04-10.24-5.12-5.12-10.24-15.36-10.24-23.04l2.56-74.24c0-7.68 2.56-15.36 10.24-20.48L803.84 104.96c5.12-5.12 12.8-10.24 23.04-10.24 7.68 0 15.36 2.56 23.04 10.24L921.6 176.64c12.8 12.8 12.8 30.72 0 43.52L460.8 675.84c-5.12 5.12-12.8 7.68-20.48 10.24l-74.24 2.56z m33.28-89.6l-2.56 28.16 28.16-2.56L852.48 197.12l-28.16-28.16-424.96 430.08z" fill="#304FFE" p-id="5913"></path></svg>