<?xml version="1.0" standalone="no"?><!DOCTYPE svg PUBLIC "-//W3C//DTD SVG 1.1//EN" "http://www.w3.org/Graphics/SVG/1.1/DTD/svg11.dtd"><svg t="1608180398643" class="icon" viewBox="0 0 1024 1024" version="1.1" xmlns="http://www.w3.org/2000/svg" p-id="5365" xmlns:xlink="http://www.w3.org/1999/xlink" width="128" height="128"><defs><style type="text/css"></style></defs><path d="M256 0h512a256 256 0 0 1 256 256v512a256 256 0 0 1-256 256h-512a256 256 0 0 1-256-256v-512a256 256 0 0 1 256-256z" fill="#8a8a8a" p-id="5366" data-spm-anchor-id="a313x.7781069.0.i8" class="selected"></path><path d="M760.32 377.984l-299.584 316.352c-6.912 7.296-18.304 9.664-29.76 9.664h-4.48a54.464 54.464 0 0 1-29.76-9.664l-130.432-137.664a36.544 36.544 0 0 1 0-50.816 31.808 31.808 0 0 1 45.696 0l109.824 115.968c2.24 2.368 4.544 2.368 6.912 2.368 2.24 0 4.48 0 6.912-2.368l276.736-292.224a31.744 31.744 0 0 1 45.696 0.064 35.584 35.584 0 0 1 9.152 24.128 24.512 24.512 0 0 1-6.912 24.192z" fill="#FFFFFF" p-id="5367"></path></svg>