<?xml version="1.0" standalone="no"?><!DOCTYPE svg PUBLIC "-//W3C//DTD SVG 1.1//EN" "http://www.w3.org/Graphics/SVG/1.1/DTD/svg11.dtd"><svg t="1608134014419" class="icon" viewBox="0 0 1024 1024" version="1.1" xmlns="http://www.w3.org/2000/svg" p-id="7660" xmlns:xlink="http://www.w3.org/1999/xlink" width="128" height="128"><defs><style type="text/css"></style></defs><path d="M758.5 596.6L517.9 837.2c-41.9 41.9-112.3 39.2-157.4-5.9L248.1 719c-45.1-45.1-47.7-115.6-5.9-157.4l240.3-240.3c9.7-9.7 23.1-15.2 37.4-15.2l195.3-0.6c33.5-0.1 61.9 28.7 61.4 62.1l-3 192.4c-0.1 14-5.5 27-15.1 36.6z" fill="#91B0FB" p-id="7661"></path><path d="M383.3 932.4H380c-35.1-0.9-67.8-15.4-92.1-40.8L106 700.4c-50-52.6-47.9-136 4.6-186l399.7-385.8c16.7-16.1 38.6-26.4 61.6-28.9L828 71.2c27.9-3 55.9 6.1 76.5 25.4 20.6 19.2 31.7 46.4 30.5 74.6l-10.6 250.4c-1.2 27.2-12.6 52.6-32.2 71.5L474 896c-24.7 23.6-56.8 36.4-90.7 36.4z m455.5-818.2c-1.9 0-3.9 0.1-5.8 0.3L576.8 143c-13.5 1.5-26.3 7.5-36 16.9l-399.9 386c-35.2 33.5-36.6 89.2-3.2 124.3l181.9 191.1c16.2 17 38 26.7 61.5 27.3 23.7 0.8 45.8-8 62.8-24.2l418.2-403c11.5-11.1 18.2-25.9 18.8-41.8l10.6-250.4c0.7-15.4-5.4-30.2-16.7-40.8-9.9-9.2-22.8-14.2-36-14.2z m63.9 306.3h0.3-0.3z" fill="#4D4D4D" p-id="7662"></path><path d="M592.1 525.1c-59.9 0-112.2-44.3-120.6-105.2-2.2-16.3-1.2-32.5 3-48.3 3.1-11.6 15.1-18.6 26.8-15.4 11.7 3.1 18.5 15.2 15.4 26.8-2.7 10.1-3.4 20.5-1.9 30.9 5.9 42.6 45.3 72.6 88 66.7 20.7-2.8 39-13.5 51.6-30.2 12.6-16.6 18-37.1 15.1-57.8-4.5-32.7-29.2-59.1-61.4-65.8-11.8-2.5-19.4-14-16.9-25.9s13.9-19.4 25.9-16.9c50.3 10.5 88.8 51.7 95.8 102.7 4.4 32.2-4 64.3-23.6 90.2-19.7 25.9-48.2 42.6-80.5 47.1-5.7 0.7-11.2 1.1-16.7 1.1z" fill="#4D4D4D" p-id="7663"></path></svg>