<?xml version="1.0" standalone="no"?><!DOCTYPE svg PUBLIC "-//W3C//DTD SVG 1.1//EN" "http://www.w3.org/Graphics/SVG/1.1/DTD/svg11.dtd"><svg t="1608030302481" class="icon" viewBox="0 0 1024 1024" version="1.1" xmlns="http://www.w3.org/2000/svg" p-id="6950" xmlns:xlink="http://www.w3.org/1999/xlink" width="128" height="128"><defs><style type="text/css"></style></defs><path d="M512 512m-512 0a512 512 0 1 0 1024 0 512 512 0 1 0-1024 0Z" fill="#1296db" p-id="6951" data-spm-anchor-id="a313x.7781069.0.i10" class=""></path><path d="M681.18528 317.44C635.15648 237.85472 549.10976 184.32 450.56 184.32c-147.07712 0-266.24 119.1936-266.24 266.24 0 89.856 44.4928 169.28768 112.64 217.4976V419.7888C296.96 363.264 342.81472 317.44 399.3088 317.44h281.87648z" fill="#c2f0cb" p-id="6952" data-spm-anchor-id="a313x.7781069.0.i11" class=""></path><path d="M296.96 419.7888C296.96 363.264 342.81472 317.44 399.3088 317.44h327.7824C783.616 317.44 829.44 363.29472 829.44 419.7888v327.7824C829.44 804.096 783.58528 849.92 727.0912 849.92h-327.7824C342.784 849.92 296.96 804.06528 296.96 747.5712v-327.7824zM629.21728 716.8h62.13632l-95.19104-274.16576h-67.45088L433.52064 716.8h57.56928l21.0944-65.36192h96.32768L629.21728 716.8z m-70.2976-217.16992h3.42016l34.00704 107.54048h-71.81312l34.38592-107.54048z" fill="#c2f0cb" p-id="6953" data-spm-anchor-id="a313x.7781069.0.i12" class=""></path></svg>